<svg xmlns="http://www.w3.org/2000/svg" xmlns:xlink="http://www.w3.org/1999/xlink" xmlns:lucid="lucid" width="2536" height="1053"><g transform="translate(255 -486)" lucid:page-tab-id="0_0"><g class="lucid-layer" lucid:layer-id="GPZqRpxcMfRc" display="block"><path d="M80 666c0-3.3 2.7-6 6-6h408c3.3 0 6 2.7 6 6v282c0 3.3-2.7 6-6 6H86c-3.3 0-6-2.7-6-6z" fill="#fff"/><path d="M80 666c0-3.3 2.7-6 6-6h408c3.3 0 6 2.7 6 6v282c0 3.3-2.7 6-6 6H86c-3.3 0-6-2.7-6-6zM80 702h420M140 702v252M320 702v252" stroke="#5e5e5e" stroke-width="3" fill="none"/><use xlink:href="#a" transform="matrix(1,0,0,1,90,660) translate(134.88888888888889 26.333333333333336)"/><use xlink:href="#b" transform="matrix(1,0,0,1,85,704.5) translate(7.222222222222221 23.833333333333336)"/><use xlink:href="#c" transform="matrix(1,0,0,1,145,704.5) translate(0 23.833333333333336)"/><use xlink:href="#d" transform="matrix(1,0,0,1,325,704.5) translate(0 23.833333333333336)"/><use xlink:href="#e" transform="matrix(1,0,0,1,145,746.5) translate(0 23.833333333333336)"/><use xlink:href="#d" transform="matrix(1,0,0,1,325,746.5) translate(0 23.833333333333336)"/><use xlink:href="#f" transform="matrix(1,0,0,1,145,788.5) translate(0 23.833333333333336)"/><use xlink:href="#d" transform="matrix(1,0,0,1,325,788.5) translate(0 23.833333333333336)"/><use xlink:href="#g" transform="matrix(1,0,0,1,145,830.5) translate(0 23.833333333333336)"/><use xlink:href="#h" transform="matrix(1,0,0,1,325,830.5) translate(0 23.833333333333336)"/><use xlink:href="#i" transform="matrix(1,0,0,1,85,872.5) translate(8 23.833333333333336)"/><use xlink:href="#j" transform="matrix(1,0,0,1,145,872.5) translate(0 23.833333333333336)"/><use xlink:href="#h" transform="matrix(1,0,0,1,325,872.5) translate(0 23.833333333333336)"/><use xlink:href="#i" transform="matrix(1,0,0,1,85,914.5) translate(8 23.833333333333336)"/><use xlink:href="#k" transform="matrix(1,0,0,1,145,914.5) translate(0 23.833333333333336)"/><use xlink:href="#h" transform="matrix(1,0,0,1,325,914.5) translate(0 23.833333333333336)"/><path d="M1540 666c0-3.3 2.7-6 6-6h408c3.3 0 6 2.7 6 6v240c0 3.3-2.7 6-6 6h-408c-3.3 0-6-2.7-6-6z" fill="#fff"/><path d="M1540 666c0-3.3 2.7-6 6-6h408c3.3 0 6 2.7 6 6v240c0 3.3-2.7 6-6 6h-408c-3.3 0-6-2.7-6-6zM1540 702h420M1600 702v210M1780 702v210" stroke="#5e5e5e" stroke-width="3" fill="none"/><use xlink:href="#l" transform="matrix(1,0,0,1,1550,660) translate(171.96296296296296 26.333333333333336)"/><use xlink:href="#b" transform="matrix(1,0,0,1,1545,704.5) translate(7.222222222222221 23.833333333333336)"/><use xlink:href="#c" transform="matrix(1,0,0,1,1605,704.5) translate(0 23.833333333333336)"/><use xlink:href="#d" transform="matrix(1,0,0,1,1785,704.5) translate(0 23.833333333333336)"/><use xlink:href="#m" transform="matrix(1,0,0,1,1605,746.5) translate(0 23.833333333333336)"/><use xlink:href="#d" transform="matrix(1,0,0,1,1785,746.5) translate(0 23.833333333333336)"/><use xlink:href="#n" transform="matrix(1,0,0,1,1545,788.5) translate(8 23.833333333333336)"/><use xlink:href="#o" transform="matrix(1,0,0,1,1605,788.5) translate(0 23.833333333333336)"/><use xlink:href="#d" transform="matrix(1,0,0,1,1785,788.5) translate(0 23.833333333333336)"/><use xlink:href="#i" transform="matrix(1,0,0,1,1545,830.5) translate(8 23.833333333333336)"/><use xlink:href="#k" transform="matrix(1,0,0,1,1605,830.5) translate(0 23.833333333333336)"/><use xlink:href="#h" transform="matrix(1,0,0,1,1785,830.5) translate(0 23.833333333333336)"/><use xlink:href="#p" transform="matrix(1,0,0,1,1605,872.5) translate(0 23.833333333333336)"/><use xlink:href="#h" transform="matrix(1,0,0,1,1785,872.5) translate(0 23.833333333333336)"/><path d="M930.52 666c0-3.3 2.68-6 6-6h306.96c3.32 0 6 2.7 6 6v156c0 3.3-2.68 6-6 6H936.52c-3.32 0-6-2.7-6-6z" fill="#fff"/><path d="M930.52 666c0-3.3 2.68-6 6-6h306.96c3.32 0 6 2.7 6 6v156c0 3.3-2.68 6-6 6H936.52c-3.32 0-6-2.7-6-6zM930.52 702h318.96M990.52 702v126M1120 702v126" stroke="#5e5e5e" stroke-width="3" fill="none"/><use xlink:href="#q" transform="matrix(1,0,0,1,940.5165354330709,660) translate(105.16666666666666 26.333333333333336)"/><use xlink:href="#b" transform="matrix(1,0,0,1,935.5165354330709,704.5) translate(7.222222222222221 23.833333333333336)"/><use xlink:href="#c" transform="matrix(1,0,0,1,995.5165354330709,704.5) translate(0 23.833333333333336)"/><use xlink:href="#d" transform="matrix(1,0,0,1,1125,704.5) translate(0 23.833333333333336)"/><use xlink:href="#r" transform="matrix(1,0,0,1,995.5165354330709,746.5) translate(0 23.833333333333336)"/><use xlink:href="#d" transform="matrix(1,0,0,1,1125,746.5) translate(0 23.833333333333336)"/><use xlink:href="#i" transform="matrix(1,0,0,1,935.5165354330709,788.5) translate(8 23.833333333333336)"/><use xlink:href="#k" transform="matrix(1,0,0,1,995.5165354330709,788.5) translate(0 23.833333333333336)"/><use xlink:href="#h" transform="matrix(1,0,0,1,1125,788.5) translate(0 23.833333333333336)"/><path d="M540.5 891H674c3.3 0 6-2.7 6-6V729c0-3.3 2.7-6 6-6h223.02" stroke="#5e5e5e" stroke-width="2" fill="none"/><path d="M501.95 881l20 10-20 10M501.95 891h20M541.95 891c0 5.52-4.48 10-10 10-5.53 0-10-4.48-10-10s4.47-10 10-10c5.52 0 10 4.48 10 10M919.02 713v20M929.02 723h-20M909.02 713v20" stroke="#5e5e5e" stroke-width="2" fill="#fff"/><path d="M1270.98 723H1424c3.3 0 6 2.7 6 6v72c0 3.3 2.7 6 6 6h63.5" stroke="#5e5e5e" stroke-width="2" fill="none"/><path d="M1260.98 733v-20M1250.98 723h20M1270.98 733v-20M1538.05 817l-20-10 20-10M1538.05 807h-20M1518.05 807c0 5.52-4.47 10-10 10-5.52 0-10-4.48-10-10s4.48-10 10-10c5.53 0 10 4.48 10 10" stroke="#5e5e5e" stroke-width="2" fill="#fff"/><path d="M860 1186c0-3.3 2.7-6 6-6h448c3.3 0 6 2.7 6 6v156c0 3.3-2.7 6-6 6H866c-3.3 0-6-2.7-6-6z" fill="#fff"/><path d="M860 1186c0-3.3 2.7-6 6-6h448c3.3 0 6 2.7 6 6v156c0 3.3-2.7 6-6 6H866c-3.3 0-6-2.7-6-6zM860 1222h460M920 1222v126M1120 1222v126" stroke="#5e5e5e" stroke-width="3" fill="none"/><use xlink:href="#s" transform="matrix(1,0,0,1,870,1180) translate(191.92592592592592 26.333333333333332)"/><use xlink:href="#t" transform="matrix(1,0,0,1,865,1224.5) translate(7.222222222222221 23.833333333333332)"/><use xlink:href="#u" transform="matrix(1,0,0,1,925,1224.5) translate(0 23.833333333333332)"/><use xlink:href="#v" transform="matrix(1,0,0,1,1125,1224.5) translate(0 23.833333333333332)"/><use xlink:href="#w" transform="matrix(1,0,0,1,925,1266.5) translate(0 23.833333333333332)"/><use xlink:href="#v" transform="matrix(1,0,0,1,1125,1266.5) translate(0 23.833333333333332)"/><use xlink:href="#x" transform="matrix(1,0,0,1,925,1308.5) translate(0 23.833333333333332)"/><use xlink:href="#v" transform="matrix(1,0,0,1,1125,1308.5) translate(0 23.833333333333332)"/><path d="M838.5 1243H686c-3.3 0-6-2.7-6-6V939c0-3.3-2.7-6-6-6H540.5" stroke="#5e5e5e" stroke-width="2" fill="none"/><path d="M848.5 1233v20M858.5 1243h-20M838.5 1233v20M501.95 923l20 10-20 10M501.95 933h20M541.95 933c0 5.52-4.48 10-10 10-5.53 0-10-4.48-10-10s4.47-10 10-10c5.52 0 10 4.48 10 10" stroke="#5e5e5e" stroke-width="2" fill="#fff"/><path d="M838.5 1243H756c-3.3 0-6-2.7-6-6V813c0-3.3 2.7-6 6-6h134.02" stroke="#5e5e5e" stroke-width="2" fill="none"/><path d="M838.5 1233v20M858.5 1243h-20M928.57 817l-20-10 20-10M928.57 807h-20M908.57 807c0 5.52-4.48 10-10 10s-10-4.48-10-10 4.48-10 10-10 10 4.48 10 10" stroke="#5e5e5e" stroke-width="2" fill="#fff"/><path d="M1341.5 1243h82.5c3.3 0 6-2.7 6-6V855c0-3.3 2.7-6 6-6h63.5" stroke="#5e5e5e" stroke-width="2" fill="none"/><path d="M1331.5 1253v-20M1321.5 1243h20M1341.5 1253v-20M1538.05 859l-20-10 20-10M1538.05 849h-20M1518.05 849c0 5.52-4.47 10-10 10-5.52 0-10-4.48-10-10s4.48-10 10-10c5.53 0 10 4.48 10 10" stroke="#5e5e5e" stroke-width="2" fill="#fff"/></g><defs><path fill="#333" d="M30-248c87 1 191-15 191 75 0 78-77 80-158 76V0H30v-248zm33 125c57 0 124 11 124-50 0-59-68-47-124-48v98" id="y"/><path fill="#333" d="M141-36C126-15 110 5 73 4 37 3 15-17 15-53c-1-64 63-63 125-63 3-35-9-54-41-54-24 1-41 7-42 31l-33-3c5-37 33-52 76-52 45 0 72 20 72 64v82c-1 20 7 32 28 27v20c-31 9-61-2-59-35zM48-53c0 20 12 33 32 33 41-3 63-29 60-74-43 2-92-5-92 41" id="z"/><path fill="#333" d="M135-143c-3-34-86-38-87 0 15 53 115 12 119 90S17 21 10-45l28-5c4 36 97 45 98 0-10-56-113-15-118-90-4-57 82-63 122-42 12 7 21 19 24 35" id="A"/><path fill="#333" d="M206 0h-36l-40-164L89 0H53L-1-190h32L70-26l43-164h34l41 164 42-164h31" id="B"/><path fill="#333" d="M100-194c62-1 85 37 85 99 1 63-27 99-86 99S16-35 15-95c0-66 28-99 85-99zM99-20c44 1 53-31 53-75 0-43-8-75-51-75s-53 32-53 75 10 74 51 75" id="C"/><path fill="#333" d="M114-163C36-179 61-72 57 0H25l-1-190h30c1 12-1 29 2 39 6-27 23-49 58-41v29" id="D"/><path fill="#333" d="M85-194c31 0 48 13 60 33l-1-100h32l1 261h-30c-2-10 0-23-3-31C134-8 116 4 85 4 32 4 16-35 15-94c0-66 23-100 70-100zm9 24c-40 0-46 34-46 75 0 40 6 74 45 74 42 0 51-32 51-76 0-42-9-74-50-73" id="E"/><g id="a"><use transform="matrix(0.07407407407407408,0,0,0.07407407407407408,0,0)" xlink:href="#y"/><use transform="matrix(0.07407407407407408,0,0,0.07407407407407408,17.77777777777778,0)" xlink:href="#z"/><use transform="matrix(0.07407407407407408,0,0,0.07407407407407408,32.592592592592595,0)" xlink:href="#A"/><use transform="matrix(0.07407407407407408,0,0,0.07407407407407408,45.92592592592593,0)" xlink:href="#A"/><use transform="matrix(0.07407407407407408,0,0,0.07407407407407408,59.25925925925927,0)" xlink:href="#B"/><use transform="matrix(0.07407407407407408,0,0,0.07407407407407408,78.44444444444446,0)" xlink:href="#C"/><use transform="matrix(0.07407407407407408,0,0,0.07407407407407408,93.25925925925927,0)" xlink:href="#D"/><use transform="matrix(0.07407407407407408,0,0,0.07407407407407408,102.07407407407408,0)" xlink:href="#E"/><use transform="matrix(0.07407407407407408,0,0,0.07407407407407408,116.88888888888889,0)" xlink:href="#A"/></g><path fill="#333" d="M194 0L95-120 63-95V0H30v-248h33v124l119-124h40L117-140 236 0h-42" id="F"/><g id="b"><use transform="matrix(0.07407407407407408,0,0,0.07407407407407408,0,0)" xlink:href="#y"/><use transform="matrix(0.07407407407407408,0,0,0.07407407407407408,17.77777777777778,0)" xlink:href="#F"/></g><path fill="#333" d="M24-231v-30h32v30H24zM24 0v-190h32V0H24" id="G"/><g id="c"><use transform="matrix(0.07407407407407408,0,0,0.07407407407407408,0,0)" xlink:href="#G"/><use transform="matrix(0.07407407407407408,0,0,0.07407407407407408,5.851851851851853,0)" xlink:href="#E"/></g><path fill="#333" d="M185-189c-5-48-123-54-124 2 14 75 158 14 163 119 3 78-121 87-175 55-17-10-28-26-33-46l33-7c5 56 141 63 141-1 0-78-155-14-162-118-5-82 145-84 179-34 5 7 8 16 11 25" id="H"/><path fill="#333" d="M59-47c-2 24 18 29 38 22v24C64 9 27 4 27-40v-127H5v-23h24l9-43h21v43h35v23H59v120" id="I"/><path fill="#333" d="M117-194c89-4 53 116 60 194h-32v-121c0-31-8-49-39-48C34-167 62-67 57 0H25l-1-190h30c1 10-1 24 2 32 11-22 29-35 61-36" id="J"/><path fill="#333" d="M177-190C167-65 218 103 67 71c-23-6-38-20-44-43l32-5c15 47 100 32 89-28v-30C133-14 115 1 83 1 29 1 15-40 15-95c0-56 16-97 71-98 29-1 48 16 59 35 1-10 0-23 2-32h30zM94-22c36 0 50-32 50-73 0-42-14-75-50-75-39 0-46 34-46 75s6 73 46 73" id="K"/><g id="d"><use transform="matrix(0.07407407407407408,0,0,0.07407407407407408,0,0)" xlink:href="#H"/><use transform="matrix(0.07407407407407408,0,0,0.07407407407407408,17.77777777777778,0)" xlink:href="#I"/><use transform="matrix(0.07407407407407408,0,0,0.07407407407407408,25.185185185185187,0)" xlink:href="#D"/><use transform="matrix(0.07407407407407408,0,0,0.07407407407407408,34,0)" xlink:href="#G"/><use transform="matrix(0.07407407407407408,0,0,0.07407407407407408,39.851851851851855,0)" xlink:href="#J"/><use transform="matrix(0.07407407407407408,0,0,0.07407407407407408,54.66666666666667,0)" xlink:href="#K"/></g><path fill="#333" d="M232-93c-1 65-40 97-104 97C67 4 28-28 28-90v-158h33c8 89-33 224 67 224 102 0 64-133 71-224h33v155" id="L"/><path fill="#333" d="M233-177c-1 41-23 64-60 70L243 0h-38l-65-103H63V0H30v-248c88 3 205-21 203 71zM63-129c60-2 137 13 137-47 0-61-80-42-137-45v92" id="M"/><path fill="#333" d="M30 0v-248h33v221h125V0H30" id="N"/><g id="e"><use transform="matrix(0.07407407407407408,0,0,0.07407407407407408,0,0)" xlink:href="#L"/><use transform="matrix(0.07407407407407408,0,0,0.07407407407407408,19.185185185185187,0)" xlink:href="#M"/><use transform="matrix(0.07407407407407408,0,0,0.07407407407407408,38.370370370370374,0)" xlink:href="#N"/></g><path fill="#333" d="M84 4C-5 8 30-112 23-190h32v120c0 31 7 50 39 49 72-2 45-101 50-169h31l1 190h-30c-1-10 1-25-2-33-11 22-28 36-60 37" id="O"/><path fill="#333" d="M100-194c63 0 86 42 84 106H49c0 40 14 67 53 68 26 1 43-12 49-29l28 8c-11 28-37 45-77 45C44 4 14-33 15-96c1-61 26-98 85-98zm52 81c6-60-76-77-97-28-3 7-6 17-6 28h103" id="P"/><path fill="#333" d="M210-169c-67 3-38 105-44 169h-31v-121c0-29-5-50-35-48C34-165 62-65 56 0H25l-1-190h30c1 10-1 24 2 32 10-44 99-50 107 0 11-21 27-35 58-36 85-2 47 119 55 194h-31v-121c0-29-5-49-35-48" id="Q"/><g id="f"><use transform="matrix(0.07407407407407408,0,0,0.07407407407407408,0,0)" xlink:href="#O"/><use transform="matrix(0.07407407407407408,0,0,0.07407407407407408,14.814814814814817,0)" xlink:href="#A"/><use transform="matrix(0.07407407407407408,0,0,0.07407407407407408,28.148148148148152,0)" xlink:href="#P"/><use transform="matrix(0.07407407407407408,0,0,0.07407407407407408,42.96296296296297,0)" xlink:href="#D"/><use transform="matrix(0.07407407407407408,0,0,0.07407407407407408,51.777777777777786,0)" xlink:href="#J"/><use transform="matrix(0.07407407407407408,0,0,0.07407407407407408,66.59259259259261,0)" xlink:href="#z"/><use transform="matrix(0.07407407407407408,0,0,0.07407407407407408,81.40740740740742,0)" xlink:href="#Q"/><use transform="matrix(0.07407407407407408,0,0,0.07407407407407408,103.55555555555557,0)" xlink:href="#P"/></g><path d="M115-194c55 1 70 41 70 98S169 2 115 4C84 4 66-9 55-30l1 105H24l-1-265h31l2 30c10-21 28-34 59-34zm-8 174c40 0 45-34 45-75s-6-73-45-74c-42 0-51 32-51 76 0 43 10 73 51 73" id="R"/><path d="M141-36C126-15 110 5 73 4 37 3 15-17 15-53c-1-64 63-63 125-63 3-35-9-54-41-54-24 1-41 7-42 31l-33-3c5-37 33-52 76-52 45 0 72 20 72 64v82c-1 20 7 32 28 27v20c-31 9-61-2-59-35zM48-53c0 20 12 33 32 33 41-3 63-29 60-74-43 2-92-5-92 41" id="S"/><path d="M135-143c-3-34-86-38-87 0 15 53 115 12 119 90S17 21 10-45l28-5c4 36 97 45 98 0-10-56-113-15-118-90-4-57 82-63 122-42 12 7 21 19 24 35" id="T"/><path d="M206 0h-36l-40-164L89 0H53L-1-190h32L70-26l43-164h34l41 164 42-164h31" id="U"/><path d="M100-194c62-1 85 37 85 99 1 63-27 99-86 99S16-35 15-95c0-66 28-99 85-99zM99-20c44 1 53-31 53-75 0-43-8-75-51-75s-53 32-53 75 10 74 51 75" id="V"/><path d="M114-163C36-179 61-72 57 0H25l-1-190h30c1 12-1 29 2 39 6-27 23-49 58-41v29" id="W"/><path d="M85-194c31 0 48 13 60 33l-1-100h32l1 261h-30c-2-10 0-23-3-31C134-8 116 4 85 4 32 4 16-35 15-94c0-66 23-100 70-100zm9 24c-40 0-46 34-46 75 0 40 6 74 45 74 42 0 51-32 51-76 0-42-9-74-50-73" id="X"/><g id="g"><use transform="matrix(0.07407407407407408,0,0,0.07407407407407408,0,0)" xlink:href="#R"/><use transform="matrix(0.07407407407407408,0,0,0.07407407407407408,14.814814814814817,0)" xlink:href="#S"/><use transform="matrix(0.07407407407407408,0,0,0.07407407407407408,29.629629629629633,0)" xlink:href="#T"/><use transform="matrix(0.07407407407407408,0,0,0.07407407407407408,42.96296296296297,0)" xlink:href="#T"/><use transform="matrix(0.07407407407407408,0,0,0.07407407407407408,56.296296296296305,0)" xlink:href="#U"/><use transform="matrix(0.07407407407407408,0,0,0.07407407407407408,75.4814814814815,0)" xlink:href="#V"/><use transform="matrix(0.07407407407407408,0,0,0.07407407407407408,90.2962962962963,0)" xlink:href="#W"/><use transform="matrix(0.07407407407407408,0,0,0.07407407407407408,99.11111111111111,0)" xlink:href="#X"/></g><path d="M185-189c-5-48-123-54-124 2 14 75 158 14 163 119 3 78-121 87-175 55-17-10-28-26-33-46l33-7c5 56 141 63 141-1 0-78-155-14-162-118-5-82 145-84 179-34 5 7 8 16 11 25" id="Y"/><path d="M59-47c-2 24 18 29 38 22v24C64 9 27 4 27-40v-127H5v-23h24l9-43h21v43h35v23H59v120" id="Z"/><path d="M24-231v-30h32v30H24zM24 0v-190h32V0H24" id="aa"/><path d="M117-194c89-4 53 116 60 194h-32v-121c0-31-8-49-39-48C34-167 62-67 57 0H25l-1-190h30c1 10-1 24 2 32 11-22 29-35 61-36" id="ab"/><path d="M177-190C167-65 218 103 67 71c-23-6-38-20-44-43l32-5c15 47 100 32 89-28v-30C133-14 115 1 83 1 29 1 15-40 15-95c0-56 16-97 71-98 29-1 48 16 59 35 1-10 0-23 2-32h30zM94-22c36 0 50-32 50-73 0-42-14-75-50-75-39 0-46 34-46 75s6 73 46 73" id="ac"/><g id="h"><use transform="matrix(0.07407407407407408,0,0,0.07407407407407408,0,0)" xlink:href="#Y"/><use transform="matrix(0.07407407407407408,0,0,0.07407407407407408,17.77777777777778,0)" xlink:href="#Z"/><use transform="matrix(0.07407407407407408,0,0,0.07407407407407408,25.185185185185187,0)" xlink:href="#W"/><use transform="matrix(0.07407407407407408,0,0,0.07407407407407408,34,0)" xlink:href="#aa"/><use transform="matrix(0.07407407407407408,0,0,0.07407407407407408,39.851851851851855,0)" xlink:href="#ab"/><use transform="matrix(0.07407407407407408,0,0,0.07407407407407408,54.66666666666667,0)" xlink:href="#ac"/></g><path d="M63-220v92h138v28H63V0H30v-248h175v28H63" id="ad"/><path d="M194 0L95-120 63-95V0H30v-248h33v124l119-124h40L117-140 236 0h-42" id="ae"/><g id="i"><use transform="matrix(0.07407407407407408,0,0,0.07407407407407408,0,0)" xlink:href="#ad"/><use transform="matrix(0.07407407407407408,0,0,0.07407407407407408,16.222222222222225,0)" xlink:href="#ae"/></g><path d="M101-234c-31-9-42 10-38 44h38v23H63V0H32v-167H5v-23h27c-7-52 17-82 69-68v24" id="af"/><path d="M24 0v-261h32V0H24" id="ag"/><path d="M100-194c63 0 86 42 84 106H49c0 40 14 67 53 68 26 1 43-12 49-29l28 8c-11 28-37 45-77 45C44 4 14-33 15-96c1-61 26-98 85-98zm52 81c6-60-76-77-97-28-3 7-6 17-6 28h103" id="ah"/><path d="M33 0v-248h34V0H33" id="ai"/><g id="j"><use transform="matrix(0.07407407407407408,0,0,0.07407407407407408,0,0)" xlink:href="#af"/><use transform="matrix(0.07407407407407408,0,0,0.07407407407407408,7.407407407407408,0)" xlink:href="#V"/><use transform="matrix(0.07407407407407408,0,0,0.07407407407407408,22.222222222222225,0)" xlink:href="#ag"/><use transform="matrix(0.07407407407407408,0,0,0.07407407407407408,28.074074074074076,0)" xlink:href="#X"/><use transform="matrix(0.07407407407407408,0,0,0.07407407407407408,42.88888888888889,0)" xlink:href="#ah"/><use transform="matrix(0.07407407407407408,0,0,0.07407407407407408,57.70370370370371,0)" xlink:href="#W"/><use transform="matrix(0.07407407407407408,0,0,0.07407407407407408,66.51851851851853,0)" xlink:href="#ai"/><use transform="matrix(0.07407407407407408,0,0,0.07407407407407408,73.92592592592594,0)" xlink:href="#X"/></g><g id="k"><use transform="matrix(0.07407407407407408,0,0,0.07407407407407408,0,0)" xlink:href="#V"/><use transform="matrix(0.07407407407407408,0,0,0.07407407407407408,14.814814814814817,0)" xlink:href="#U"/><use transform="matrix(0.07407407407407408,0,0,0.07407407407407408,34,0)" xlink:href="#ab"/><use transform="matrix(0.07407407407407408,0,0,0.07407407407407408,48.81481481481481,0)" xlink:href="#ah"/><use transform="matrix(0.07407407407407408,0,0,0.07407407407407408,63.629629629629626,0)" xlink:href="#W"/><use transform="matrix(0.07407407407407408,0,0,0.07407407407407408,72.44444444444446,0)" xlink:href="#ai"/><use transform="matrix(0.07407407407407408,0,0,0.07407407407407408,79.85185185185186,0)" xlink:href="#X"/></g><path fill="#333" d="M63-220v92h138v28H63V0H30v-248h175v28H63" id="aj"/><path fill="#333" d="M24 0v-261h32V0H24" id="ak"/><g id="l"><use transform="matrix(0.07407407407407408,0,0,0.07407407407407408,0,0)" xlink:href="#aj"/><use transform="matrix(0.07407407407407408,0,0,0.07407407407407408,16.222222222222225,0)" xlink:href="#G"/><use transform="matrix(0.07407407407407408,0,0,0.07407407407407408,22.074074074074076,0)" xlink:href="#ak"/><use transform="matrix(0.07407407407407408,0,0,0.07407407407407408,27.92592592592593,0)" xlink:href="#P"/><use transform="matrix(0.07407407407407408,0,0,0.07407407407407408,42.74074074074075,0)" xlink:href="#A"/></g><path fill="#333" d="M101-234c-31-9-42 10-38 44h38v23H63V0H32v-167H5v-23h27c-7-52 17-82 69-68v24" id="al"/><path fill="#333" d="M190 0L58-211 59 0H30v-248h39L202-35l-2-213h31V0h-41" id="am"/><g id="m"><use transform="matrix(0.07407407407407408,0,0,0.07407407407407408,0,0)" xlink:href="#al"/><use transform="matrix(0.07407407407407408,0,0,0.07407407407407408,7.407407407407408,0)" xlink:href="#G"/><use transform="matrix(0.07407407407407408,0,0,0.07407407407407408,13.259259259259261,0)" xlink:href="#ak"/><use transform="matrix(0.07407407407407408,0,0,0.07407407407407408,19.111111111111114,0)" xlink:href="#P"/><use transform="matrix(0.07407407407407408,0,0,0.07407407407407408,33.92592592592593,0)" xlink:href="#am"/><use transform="matrix(0.07407407407407408,0,0,0.07407407407407408,53.11111111111112,0)" xlink:href="#z"/><use transform="matrix(0.07407407407407408,0,0,0.07407407407407408,67.92592592592592,0)" xlink:href="#Q"/><use transform="matrix(0.07407407407407408,0,0,0.07407407407407408,90.07407407407408,0)" xlink:href="#P"/></g><g id="n"><use transform="matrix(0.07407407407407408,0,0,0.07407407407407408,0,0)" xlink:href="#aj"/><use transform="matrix(0.07407407407407408,0,0,0.07407407407407408,16.222222222222225,0)" xlink:href="#F"/></g><path fill="#333" d="M33 0v-248h34V0H33" id="an"/><g id="o"><use transform="matrix(0.07407407407407408,0,0,0.07407407407407408,0,0)" xlink:href="#al"/><use transform="matrix(0.07407407407407408,0,0,0.07407407407407408,7.407407407407408,0)" xlink:href="#C"/><use transform="matrix(0.07407407407407408,0,0,0.07407407407407408,22.222222222222225,0)" xlink:href="#ak"/><use transform="matrix(0.07407407407407408,0,0,0.07407407407407408,28.074074074074076,0)" xlink:href="#E"/><use transform="matrix(0.07407407407407408,0,0,0.07407407407407408,42.88888888888889,0)" xlink:href="#P"/><use transform="matrix(0.07407407407407408,0,0,0.07407407407407408,57.70370370370371,0)" xlink:href="#D"/><use transform="matrix(0.07407407407407408,0,0,0.07407407407407408,66.51851851851853,0)" xlink:href="#an"/><use transform="matrix(0.07407407407407408,0,0,0.07407407407407408,73.92592592592594,0)" xlink:href="#E"/></g><path d="M30 0v-248h33v221h125V0H30" id="ao"/><path d="M96-169c-40 0-48 33-48 73s9 75 48 75c24 0 41-14 43-38l32 2c-6 37-31 61-74 61-59 0-76-41-82-99-10-93 101-131 147-64 4 7 5 14 7 22l-32 3c-4-21-16-35-41-35" id="ap"/><g id="p"><use transform="matrix(0.07407407407407408,0,0,0.07407407407407408,0,0)" xlink:href="#af"/><use transform="matrix(0.07407407407407408,0,0,0.07407407407407408,7.407407407407408,0)" xlink:href="#aa"/><use transform="matrix(0.07407407407407408,0,0,0.07407407407407408,13.259259259259261,0)" xlink:href="#ag"/><use transform="matrix(0.07407407407407408,0,0,0.07407407407407408,19.111111111111114,0)" xlink:href="#ah"/><use transform="matrix(0.07407407407407408,0,0,0.07407407407407408,33.92592592592593,0)" xlink:href="#ao"/><use transform="matrix(0.07407407407407408,0,0,0.07407407407407408,48.74074074074075,0)" xlink:href="#V"/><use transform="matrix(0.07407407407407408,0,0,0.07407407407407408,63.555555555555564,0)" xlink:href="#ap"/><use transform="matrix(0.07407407407407408,0,0,0.07407407407407408,76.8888888888889,0)" xlink:href="#S"/><use transform="matrix(0.07407407407407408,0,0,0.07407407407407408,91.70370370370371,0)" xlink:href="#Z"/><use transform="matrix(0.07407407407407408,0,0,0.07407407407407408,99.11111111111113,0)" xlink:href="#aa"/><use transform="matrix(0.07407407407407408,0,0,0.07407407407407408,104.96296296296298,0)" xlink:href="#V"/><use transform="matrix(0.07407407407407408,0,0,0.07407407407407408,119.7777777777778,0)" xlink:href="#ab"/></g><g id="q"><use transform="matrix(0.07407407407407408,0,0,0.07407407407407408,0,0)" xlink:href="#aj"/><use transform="matrix(0.07407407407407408,0,0,0.07407407407407408,16.222222222222225,0)" xlink:href="#C"/><use transform="matrix(0.07407407407407408,0,0,0.07407407407407408,31.03703703703704,0)" xlink:href="#ak"/><use transform="matrix(0.07407407407407408,0,0,0.07407407407407408,36.88888888888889,0)" xlink:href="#E"/><use transform="matrix(0.07407407407407408,0,0,0.07407407407407408,51.70370370370371,0)" xlink:href="#P"/><use transform="matrix(0.07407407407407408,0,0,0.07407407407407408,66.51851851851853,0)" xlink:href="#D"/><use transform="matrix(0.07407407407407408,0,0,0.07407407407407408,75.33333333333334,0)" xlink:href="#A"/></g><g id="r"><use transform="matrix(0.07407407407407408,0,0,0.07407407407407408,0,0)" xlink:href="#J"/><use transform="matrix(0.07407407407407408,0,0,0.07407407407407408,14.814814814814817,0)" xlink:href="#z"/><use transform="matrix(0.07407407407407408,0,0,0.07407407407407408,29.629629629629633,0)" xlink:href="#Q"/><use transform="matrix(0.07407407407407408,0,0,0.07407407407407408,51.777777777777786,0)" xlink:href="#P"/></g><g id="s"><use transform="matrix(0.07407407407407407,0,0,0.07407407407407407,0,0)" xlink:href="#L"/><use transform="matrix(0.07407407407407407,0,0,0.07407407407407407,19.185185185185183,0)" xlink:href="#A"/><use transform="matrix(0.07407407407407407,0,0,0.07407407407407407,32.51851851851852,0)" xlink:href="#P"/><use transform="matrix(0.07407407407407407,0,0,0.07407407407407407,47.33333333333333,0)" xlink:href="#D"/></g><g id="t"><use transform="matrix(0.07407407407407407,0,0,0.07407407407407407,0,0)" xlink:href="#y"/><use transform="matrix(0.07407407407407407,0,0,0.07407407407407407,17.77777777777778,0)" xlink:href="#F"/></g><g id="u"><use transform="matrix(0.07407407407407407,0,0,0.07407407407407407,0,0)" xlink:href="#G"/><use transform="matrix(0.07407407407407407,0,0,0.07407407407407407,5.851851851851851,0)" xlink:href="#E"/></g><g id="v"><use transform="matrix(0.07407407407407407,0,0,0.07407407407407407,0,0)" xlink:href="#H"/><use transform="matrix(0.07407407407407407,0,0,0.07407407407407407,17.77777777777778,0)" xlink:href="#I"/><use transform="matrix(0.07407407407407407,0,0,0.07407407407407407,25.185185185185183,0)" xlink:href="#D"/><use transform="matrix(0.07407407407407407,0,0,0.07407407407407407,34,0)" xlink:href="#G"/><use transform="matrix(0.07407407407407407,0,0,0.07407407407407407,39.85185185185185,0)" xlink:href="#J"/><use transform="matrix(0.07407407407407407,0,0,0.07407407407407407,54.66666666666666,0)" xlink:href="#K"/></g><g id="w"><use transform="matrix(0.07407407407407407,0,0,0.07407407407407407,0,0)" xlink:href="#J"/><use transform="matrix(0.07407407407407407,0,0,0.07407407407407407,14.814814814814813,0)" xlink:href="#z"/><use transform="matrix(0.07407407407407407,0,0,0.07407407407407407,29.629629629629626,0)" xlink:href="#Q"/><use transform="matrix(0.07407407407407407,0,0,0.07407407407407407,51.77777777777777,0)" xlink:href="#P"/></g><path fill="#333" d="M115-194c55 1 70 41 70 98S169 2 115 4C84 4 66-9 55-30l1 105H24l-1-265h31l2 30c10-21 28-34 59-34zm-8 174c40 0 45-34 45-75s-6-73-45-74c-42 0-51 32-51 76 0 43 10 73 51 73" id="aq"/><g id="x"><use transform="matrix(0.07407407407407407,0,0,0.07407407407407407,0,0)" xlink:href="#aq"/><use transform="matrix(0.07407407407407407,0,0,0.07407407407407407,14.814814814814813,0)" xlink:href="#z"/><use transform="matrix(0.07407407407407407,0,0,0.07407407407407407,29.629629629629626,0)" xlink:href="#A"/><use transform="matrix(0.07407407407407407,0,0,0.07407407407407407,42.96296296296296,0)" xlink:href="#A"/><use transform="matrix(0.07407407407407407,0,0,0.07407407407407407,56.29629629629629,0)" xlink:href="#B"/><use transform="matrix(0.07407407407407407,0,0,0.07407407407407407,75.48148148148147,0)" xlink:href="#C"/><use transform="matrix(0.07407407407407407,0,0,0.07407407407407407,90.29629629629628,0)" xlink:href="#D"/><use transform="matrix(0.07407407407407407,0,0,0.07407407407407407,99.11111111111109,0)" xlink:href="#E"/></g></defs></g></svg>